<svg id="Layer_1" data-name="Layer 1" xmlns="http://www.w3.org/2000/svg" xmlns:xlink="http://www.w3.org/1999/xlink" viewBox="0 0 94.62 200"><defs><style>.cls-1{fill:url(#linear-gradient);}.cls-2{fill:url(#linear-gradient-2);}</style><linearGradient id="linear-gradient" x1="2" y1="20.1" x2="90.51" y2="20.1" gradientUnits="userSpaceOnUse"><stop offset="0" stop-color="#e11c22"/><stop offset="1" stop-color="#f57b21"/></linearGradient><linearGradient id="linear-gradient-2" x1="2" y1="123.34" x2="90.51" y2="123.34" xlink:href="#linear-gradient"/></defs><path class="cls-1" d="M66.26,20.1A20.1,20.1,0,1,1,46.16,0a20.1,20.1,0,0,1,20.1,20.1" transform="translate(0.2)"/><path class="cls-2" d="M79.21,59.62A75,75,0,0,0,69,49.06a9,9,0,0,0-6.47-2.38H32.19a9,9,0,0,0-6.47,2.38A75.59,75.59,0,0,0,15.5,59.62C1.87,77-.51,96.76-.17,110.73a9.6,9.6,0,0,0,9.88,9.54h.34a9.68,9.68,0,0,0,9.54-10.22,62,62,0,0,1,5.11-27.6,338.72,338.72,0,0,1-1,37.14L23,126.06v64.06a9.88,9.88,0,0,0,19.76,0V136.63h8.52v53.49a9.88,9.88,0,0,0,19.76,0v-64.4l-1-21.46c-.34-6.82-.34-14-.34-20.79a62.59,62.59,0,0,1,4.77,26.92c0,5.45,4.09,10.22,9.54,10.22h.34a9.6,9.6,0,0,0,9.88-9.54c1-14-1.36-33.73-15-51.45Z" transform="translate(0.2)"/></svg>