<svg id="Layer_1" data-name="Layer 1" xmlns="http://www.w3.org/2000/svg" xmlns:xlink="http://www.w3.org/1999/xlink" viewBox="0 0 199.63 127.03"><defs><style>.cls-1{fill:url(#linear-gradient);}.cls-2{fill:url(#linear-gradient-2);}.cls-3{fill:url(#linear-gradient-3);}</style><linearGradient id="linear-gradient" x1="-1.56" y1="63.5" x2="197.17" y2="63.5" gradientUnits="userSpaceOnUse"><stop offset="0" stop-color="#e11c22"/><stop offset="1" stop-color="#f57b21"/></linearGradient><linearGradient id="linear-gradient-2" x1="-4.01" y1="58.99" x2="199.9" y2="58.99" gradientTransform="translate(115.88 165.98) rotate(-135)" xlink:href="#linear-gradient"/><linearGradient id="linear-gradient-3" x1="-3.49" y1="52.81" x2="198.55" y2="52.81" gradientTransform="translate(232.5 9.32) rotate(135)" xlink:href="#linear-gradient"/></defs><path class="cls-1" d="M101.74,12.76A50.74,50.74,0,1,1,51,63.5a50.8,50.8,0,0,1,50.74-50.74m0-7.43A58.17,58.17,0,1,0,159.9,63.5,58.17,58.17,0,0,0,101.74,5.33Z" transform="translate(0 0.02)"/><rect class="cls-2" x="89.59" y="45.21" width="5.45" height="27.57" rx="1.49" transform="translate(199.31 35.44) rotate(135)"/><rect class="cls-3" x="111.59" y="30.38" width="5.45" height="44.86" rx="1.49" transform="translate(157.81 171.01) rotate(-135)"/><path class="cls-1" d="M184.24,0c8.5,0,15.39,10.34,15.39,23.09,0,10.76-4.9,19.81-11.55,22.36v77.68a3.85,3.85,0,1,1-7.69,0V45.43c-6.65-2.55-11.55-11.6-11.55-22.36,0-12.75,6.89-23.09,15.4-23.09Z" transform="translate(0 0.02)"/><path class="cls-1" d="M35.05,0a4,4,0,0,1,3.43,3.91V30.74A19.35,19.35,0,0,1,23.09,49.62v73.47A4,4,0,0,1,19.24,127a4,4,0,0,1-3.85-3.91V49.62A19.35,19.35,0,0,1,0,30.74V3.93A4,4,0,0,1,3.85,0,4,4,0,0,1,7.7,3.93V30.74a11.45,11.45,0,0,0,7.69,10.94V3.93A4,4,0,0,1,19.66,0a4,4,0,0,1,3.43,3.91V41.68a11.45,11.45,0,0,0,7.69-10.94V3.93A4,4,0,0,1,35.05,0Z" transform="translate(0 0.02)"/></svg>