<?xml version="1.0" encoding="utf-8"?>
<!-- Generator: Adobe Illustrator 25.3.1, SVG Export Plug-In . SVG Version: 6.00 Build 0)  -->
<svg version="1.1" id="Layer_1" xmlns="http://www.w3.org/2000/svg" xmlns:xlink="http://www.w3.org/1999/xlink" x="0px" y="0px"
	 viewBox="0 0 100 87" style="enable-background:new 0 0 100 87;" xml:space="preserve">
<style type="text/css">
	.st0{fill:url(#SVGID_1_);}
	.st1{fill:url(#SVGID_2_);}
	.st2{fill:url(#SVGID_3_);}
	.st3{fill:url(#SVGID_4_);}
	.st4{fill:url(#SVGID_5_);}
	.st5{fill:url(#SVGID_6_);}
	.st6{fill:url(#SVGID_7_);}
	.st7{fill:url(#SVGID_8_);}
	.st8{fill:url(#SVGID_9_);}
	.st9{fill:url(#SVGID_10_);}
	.st10{fill:url(#SVGID_11_);}
	.st11{fill:url(#SVGID_12_);}
	.st12{fill:url(#SVGID_13_);}
	.st13{fill:url(#SVGID_14_);}
	.st14{fill:url(#SVGID_15_);}
	.st15{fill:url(#SVGID_16_);}
	.st16{fill:url(#SVGID_17_);}
	.st17{fill:url(#SVGID_18_);}
	.st18{fill:url(#SVGID_19_);}
	.st19{fill:url(#SVGID_20_);}
	.st20{fill:url(#SVGID_21_);}
	.st21{fill:url(#SVGID_22_);}
	.st22{fill:url(#SVGID_23_);}
	.st23{fill:url(#SVGID_24_);}
	.st24{fill:url(#SVGID_25_);}
	.st25{fill:url(#SVGID_26_);}
</style>
<g>
	<linearGradient id="SVGID_1_" gradientUnits="userSpaceOnUse" x1="-10.0444" y1="4.7455" x2="80.0752" y2="76.5383">
		<stop  offset="0" style="stop-color:#E01B22"/>
		<stop  offset="0.28" style="stop-color:#E01B22"/>
		<stop  offset="0.4025" style="stop-color:#E22422"/>
		<stop  offset="0.6024" style="stop-color:#E73C21"/>
		<stop  offset="0.8532" style="stop-color:#EF6421"/>
		<stop  offset="1" style="stop-color:#F47E20"/>
	</linearGradient>
	<rect x="8.9" y="18.6" class="st0" width="11.9" height="11.9"/>
	<linearGradient id="SVGID_2_" gradientUnits="userSpaceOnUse" x1="3.3699" y1="-12.093" x2="93.4894" y2="59.6999">
		<stop  offset="0" style="stop-color:#E01B22"/>
		<stop  offset="0.28" style="stop-color:#E01B22"/>
		<stop  offset="0.4025" style="stop-color:#E22422"/>
		<stop  offset="0.6024" style="stop-color:#E73C21"/>
		<stop  offset="0.8532" style="stop-color:#EF6421"/>
		<stop  offset="1" style="stop-color:#F47E20"/>
	</linearGradient>
	<rect x="43.4" y="18.6" class="st1" width="11.9" height="11.9"/>
	<linearGradient id="SVGID_3_" gradientUnits="userSpaceOnUse" x1="10.0765" y1="-20.5117" x2="100.196" y2="51.2812">
		<stop  offset="0" style="stop-color:#E01B22"/>
		<stop  offset="0.28" style="stop-color:#E01B22"/>
		<stop  offset="0.4025" style="stop-color:#E22422"/>
		<stop  offset="0.6024" style="stop-color:#E73C21"/>
		<stop  offset="0.8532" style="stop-color:#EF6421"/>
		<stop  offset="1" style="stop-color:#F47E20"/>
	</linearGradient>
	<rect x="60.7" y="18.6" class="st2" width="11.9" height="11.9"/>
	<linearGradient id="SVGID_4_" gradientUnits="userSpaceOnUse" x1="-17.8673" y1="14.5655" x2="72.2522" y2="86.3583">
		<stop  offset="0" style="stop-color:#E01B22"/>
		<stop  offset="0.28" style="stop-color:#E01B22"/>
		<stop  offset="0.4025" style="stop-color:#E22422"/>
		<stop  offset="0.6024" style="stop-color:#E73C21"/>
		<stop  offset="0.8532" style="stop-color:#EF6421"/>
		<stop  offset="1" style="stop-color:#F47E20"/>
	</linearGradient>
	<rect x="8.9" y="34.7" class="st3" width="11.9" height="11.9"/>
	<linearGradient id="SVGID_5_" gradientUnits="userSpaceOnUse" x1="-4.4531" y1="-2.273" x2="85.6664" y2="69.5198">
		<stop  offset="0" style="stop-color:#E01B22"/>
		<stop  offset="0.28" style="stop-color:#E01B22"/>
		<stop  offset="0.4025" style="stop-color:#E22422"/>
		<stop  offset="0.6024" style="stop-color:#E73C21"/>
		<stop  offset="0.8532" style="stop-color:#EF6421"/>
		<stop  offset="1" style="stop-color:#F47E20"/>
	</linearGradient>
	<rect x="43.4" y="34.7" class="st4" width="11.9" height="11.9"/>
	<linearGradient id="SVGID_6_" gradientUnits="userSpaceOnUse" x1="2.2536" y1="-10.6917" x2="92.3731" y2="61.1011">
		<stop  offset="0" style="stop-color:#E01B22"/>
		<stop  offset="0.28" style="stop-color:#E01B22"/>
		<stop  offset="0.4025" style="stop-color:#E22422"/>
		<stop  offset="0.6024" style="stop-color:#E73C21"/>
		<stop  offset="0.8532" style="stop-color:#EF6421"/>
		<stop  offset="1" style="stop-color:#F47E20"/>
	</linearGradient>
	<rect x="60.7" y="34.7" class="st5" width="11.9" height="11.9"/>
	<linearGradient id="SVGID_7_" gradientUnits="userSpaceOnUse" x1="-25.6909" y1="24.3861" x2="64.4287" y2="96.1789">
		<stop  offset="0" style="stop-color:#E01B22"/>
		<stop  offset="0.28" style="stop-color:#E01B22"/>
		<stop  offset="0.4025" style="stop-color:#E22422"/>
		<stop  offset="0.6024" style="stop-color:#E73C21"/>
		<stop  offset="0.8532" style="stop-color:#EF6421"/>
		<stop  offset="1" style="stop-color:#F47E20"/>
	</linearGradient>
	<rect x="8.9" y="50.7" class="st6" width="11.9" height="11.9"/>
	<linearGradient id="SVGID_8_" gradientUnits="userSpaceOnUse" x1="-12.2766" y1="7.5476" x2="77.8429" y2="79.3405">
		<stop  offset="0" style="stop-color:#E01B22"/>
		<stop  offset="0.28" style="stop-color:#E01B22"/>
		<stop  offset="0.4025" style="stop-color:#E22422"/>
		<stop  offset="0.6024" style="stop-color:#E73C21"/>
		<stop  offset="0.8532" style="stop-color:#EF6421"/>
		<stop  offset="1" style="stop-color:#F47E20"/>
	</linearGradient>
	<rect x="43.4" y="50.7" class="st7" width="11.9" height="11.9"/>
	<linearGradient id="SVGID_9_" gradientUnits="userSpaceOnUse" x1="-3.3374" y1="-3.6735" x2="86.7821" y2="68.1193">
		<stop  offset="0" style="stop-color:#E01B22"/>
		<stop  offset="0.28" style="stop-color:#E01B22"/>
		<stop  offset="0.4025" style="stop-color:#E22422"/>
		<stop  offset="0.6024" style="stop-color:#E73C21"/>
		<stop  offset="0.8532" style="stop-color:#EF6421"/>
		<stop  offset="1" style="stop-color:#F47E20"/>
	</linearGradient>
	<polygon class="st8" points="39.1,19.7 37,17.6 32.1,22.4 27.2,17.6 25.1,19.7 30,24.6 25.1,29.4 27.2,31.6 32.1,26.7 37,31.6 
		39.1,29.4 34.2,24.6 	"/>
	<linearGradient id="SVGID_10_" gradientUnits="userSpaceOnUse" x1="-11.1604" y1="6.1465" x2="78.9591" y2="77.9393">
		<stop  offset="0" style="stop-color:#E01B22"/>
		<stop  offset="0.28" style="stop-color:#E01B22"/>
		<stop  offset="0.4025" style="stop-color:#E22422"/>
		<stop  offset="0.6024" style="stop-color:#E73C21"/>
		<stop  offset="0.8532" style="stop-color:#EF6421"/>
		<stop  offset="1" style="stop-color:#F47E20"/>
	</linearGradient>
	<polygon class="st9" points="39.1,35.7 37,33.6 32.1,38.5 27.2,33.6 25.1,35.7 30,40.6 25.1,45.5 27.2,47.6 32.1,42.7 37,47.6 
		39.1,45.5 34.2,40.6 	"/>
	<linearGradient id="SVGID_11_" gradientUnits="userSpaceOnUse" x1="-19.0001" y1="15.9874" x2="71.1194" y2="87.7803">
		<stop  offset="0" style="stop-color:#E01B22"/>
		<stop  offset="0.28" style="stop-color:#E01B22"/>
		<stop  offset="0.4025" style="stop-color:#E22422"/>
		<stop  offset="0.6024" style="stop-color:#E73C21"/>
		<stop  offset="0.8532" style="stop-color:#EF6421"/>
		<stop  offset="1" style="stop-color:#F47E20"/>
	</linearGradient>
	<polygon class="st10" points="39.1,51.8 37,49.7 32.1,54.6 27.2,49.7 25.1,51.8 30,56.7 25.1,61.6 27.2,63.7 32.1,58.8 37,63.7 
		39.1,61.6 34.2,56.7 	"/>
	<linearGradient id="SVGID_12_" gradientUnits="userSpaceOnUse" x1="-4.7524" y1="-1.8973" x2="85.3671" y2="69.8956">
		<stop  offset="0" style="stop-color:#E01B22"/>
		<stop  offset="0.28" style="stop-color:#E01B22"/>
		<stop  offset="0.4025" style="stop-color:#E22422"/>
		<stop  offset="0.6024" style="stop-color:#E73C21"/>
		<stop  offset="0.8532" style="stop-color:#EF6421"/>
		<stop  offset="1" style="stop-color:#F47E20"/>
	</linearGradient>
	<path class="st11" d="M80,47.7c1-0.1,2-0.1,3.1,0V0H0.1v70h60.6c-0.1-1-0.1-2,0-3.1H3.2V12.1H80"/>
	<linearGradient id="SVGID_13_" gradientUnits="userSpaceOnUse" x1="-5.965" y1="-0.3751" x2="84.1545" y2="71.4177">
		<stop  offset="0" style="stop-color:#E01B22"/>
		<stop  offset="0.28" style="stop-color:#E01B22"/>
		<stop  offset="0.4025" style="stop-color:#E22422"/>
		<stop  offset="0.6024" style="stop-color:#E73C21"/>
		<stop  offset="0.8532" style="stop-color:#EF6421"/>
		<stop  offset="1" style="stop-color:#F47E20"/>
	</linearGradient>
	<path class="st12" d="M60.7,62.6h0.8c0.5-1.6,1.1-3.1,1.9-4.6c1.8-3,4.2-5.5,7.1-7.3h-9.9V62.6z"/>
	<linearGradient id="SVGID_14_" gradientUnits="userSpaceOnUse" x1="-5.5657" y1="-0.8764" x2="84.5538" y2="70.9164">
		<stop  offset="0" style="stop-color:#E01B22"/>
		<stop  offset="0.28" style="stop-color:#E01B22"/>
		<stop  offset="0.4025" style="stop-color:#E22422"/>
		<stop  offset="0.6024" style="stop-color:#E73C21"/>
		<stop  offset="0.8532" style="stop-color:#EF6421"/>
		<stop  offset="1" style="stop-color:#F47E20"/>
	</linearGradient>
	<path class="st13" d="M81.5,87c-3.1,0-6.3-0.8-9.2-2.5C68,82,64.9,78,63.6,73.3s-0.6-9.8,1.8-14c5.1-8.8,16.4-11.9,25.3-6.8
		c8.8,5.1,11.9,16.4,6.8,25.3l0,0C94.1,83.7,87.9,87,81.5,87z M81.5,53c-5.4,0-10.6,2.8-13.5,7.7c-2.1,3.6-2.6,7.8-1.5,11.8
		c1.1,4,3.6,7.3,7.2,9.4c7.4,4.3,16.9,1.7,21.2-5.7l0,0c4.3-7.4,1.7-16.9-5.7-21.2C86.8,53.6,84.2,53,81.5,53z"/>
	<linearGradient id="SVGID_15_" gradientUnits="userSpaceOnUse" x1="0.9064" y1="-9.0006" x2="91.0259" y2="62.7922">
		<stop  offset="0" style="stop-color:#E01B22"/>
		<stop  offset="0.28" style="stop-color:#E01B22"/>
		<stop  offset="0.4025" style="stop-color:#E22422"/>
		<stop  offset="0.6024" style="stop-color:#E73C21"/>
		<stop  offset="0.8532" style="stop-color:#EF6421"/>
		<stop  offset="1" style="stop-color:#F47E20"/>
	</linearGradient>
	<path class="st14" d="M82.3,55.9c0,0.4-0.4,0.8-0.8,0.8l0,0c-0.4,0-0.8-0.4-0.8-0.8v-1.4c0-0.4,0.4-0.8,0.8-0.8l0,0
		c0.4,0,0.8,0.4,0.8,0.8V55.9z"/>
	<linearGradient id="SVGID_16_" gradientUnits="userSpaceOnUse" x1="-2.5382" y1="-4.6768" x2="87.5814" y2="67.116">
		<stop  offset="0" style="stop-color:#E01B22"/>
		<stop  offset="0.28" style="stop-color:#E01B22"/>
		<stop  offset="0.4025" style="stop-color:#E22422"/>
		<stop  offset="0.6024" style="stop-color:#E73C21"/>
		<stop  offset="0.8532" style="stop-color:#EF6421"/>
		<stop  offset="1" style="stop-color:#F47E20"/>
	</linearGradient>
	<path class="st15" d="M75.9,57.2c0.2,0.4,0.1,0.9-0.3,1.1l0,0c-0.4,0.2-0.9,0.1-1.1-0.3l-0.7-1.2c-0.2-0.4-0.1-0.9,0.3-1.1l0,0
		c0.4-0.2,0.9-0.1,1.1,0.3L75.9,57.2z"/>
	<linearGradient id="SVGID_17_" gradientUnits="userSpaceOnUse" x1="-6.7933" y1="0.6646" x2="83.3262" y2="72.4574">
		<stop  offset="0" style="stop-color:#E01B22"/>
		<stop  offset="0.28" style="stop-color:#E01B22"/>
		<stop  offset="0.4025" style="stop-color:#E22422"/>
		<stop  offset="0.6024" style="stop-color:#E73C21"/>
		<stop  offset="0.8532" style="stop-color:#EF6421"/>
		<stop  offset="1" style="stop-color:#F47E20"/>
	</linearGradient>
	<path class="st16" d="M71,61.5c0.4,0.2,0.5,0.7,0.3,1.1l0,0c-0.2,0.4-0.7,0.5-1.1,0.3L69,62.2c-0.4-0.2-0.5-0.7-0.3-1.1l0,0
		c0.2-0.4,0.7-0.5,1.1-0.3L71,61.5z"/>
	<linearGradient id="SVGID_18_" gradientUnits="userSpaceOnUse" x1="-10.7194" y1="5.5929" x2="79.4001" y2="77.3857">
		<stop  offset="0" style="stop-color:#E01B22"/>
		<stop  offset="0.28" style="stop-color:#E01B22"/>
		<stop  offset="0.4025" style="stop-color:#E22422"/>
		<stop  offset="0.6024" style="stop-color:#E73C21"/>
		<stop  offset="0.8532" style="stop-color:#EF6421"/>
		<stop  offset="1" style="stop-color:#F47E20"/>
	</linearGradient>
	<path class="st17" d="M68.9,67.7c0.4,0,0.8,0.4,0.8,0.8l0,0c0,0.4-0.4,0.8-0.8,0.8h-1.4c-0.4,0-0.8-0.4-0.8-0.8l0,0
		c0-0.4,0.4-0.8,0.8-0.8H68.9z"/>
	<linearGradient id="SVGID_19_" gradientUnits="userSpaceOnUse" x1="-13.264" y1="8.7871" x2="76.8555" y2="80.5799">
		<stop  offset="0" style="stop-color:#E01B22"/>
		<stop  offset="0.28" style="stop-color:#E01B22"/>
		<stop  offset="0.4025" style="stop-color:#E22422"/>
		<stop  offset="0.6024" style="stop-color:#E73C21"/>
		<stop  offset="0.8532" style="stop-color:#EF6421"/>
		<stop  offset="1" style="stop-color:#F47E20"/>
	</linearGradient>
	<path class="st18" d="M70.2,74.1c0.4-0.2,0.9-0.1,1.1,0.3l0,0c0.2,0.4,0.1,0.9-0.3,1.1l-1.2,0.7c-0.4,0.2-0.9,0.1-1.1-0.3l0,0
		c-0.2-0.4-0.1-0.9,0.3-1.1L70.2,74.1z"/>
	<linearGradient id="SVGID_20_" gradientUnits="userSpaceOnUse" x1="-13.7458" y1="9.3918" x2="76.3737" y2="81.1846">
		<stop  offset="0" style="stop-color:#E01B22"/>
		<stop  offset="0.28" style="stop-color:#E01B22"/>
		<stop  offset="0.4025" style="stop-color:#E22422"/>
		<stop  offset="0.6024" style="stop-color:#E73C21"/>
		<stop  offset="0.8532" style="stop-color:#EF6421"/>
		<stop  offset="1" style="stop-color:#F47E20"/>
	</linearGradient>
	<path class="st19" d="M74.5,79c0.2-0.4,0.7-0.5,1.1-0.3l0,0c0.4,0.2,0.5,0.7,0.3,1.1L75.2,81c-0.2,0.4-0.7,0.5-1.1,0.3l0,0
		c-0.4-0.2-0.5-0.7-0.3-1.1L74.5,79z"/>
	<linearGradient id="SVGID_21_" gradientUnits="userSpaceOnUse" x1="-12.0348" y1="7.244" x2="78.0847" y2="79.0369">
		<stop  offset="0" style="stop-color:#E01B22"/>
		<stop  offset="0.28" style="stop-color:#E01B22"/>
		<stop  offset="0.4025" style="stop-color:#E22422"/>
		<stop  offset="0.6024" style="stop-color:#E73C21"/>
		<stop  offset="0.8532" style="stop-color:#EF6421"/>
		<stop  offset="1" style="stop-color:#F47E20"/>
	</linearGradient>
	<path class="st20" d="M80.7,81.1c0-0.4,0.4-0.8,0.8-0.8l0,0c0.4,0,0.8,0.4,0.8,0.8v1.4c0,0.4-0.4,0.8-0.8,0.8l0,0
		c-0.4,0-0.8-0.4-0.8-0.8V81.1z"/>
	<linearGradient id="SVGID_22_" gradientUnits="userSpaceOnUse" x1="-8.5906" y1="2.9207" x2="81.5289" y2="74.7135">
		<stop  offset="0" style="stop-color:#E01B22"/>
		<stop  offset="0.28" style="stop-color:#E01B22"/>
		<stop  offset="0.4025" style="stop-color:#E22422"/>
		<stop  offset="0.6024" style="stop-color:#E73C21"/>
		<stop  offset="0.8532" style="stop-color:#EF6421"/>
		<stop  offset="1" style="stop-color:#F47E20"/>
	</linearGradient>
	<path class="st21" d="M87.1,79.8c-0.2-0.4-0.1-0.9,0.3-1.1l0,0c0.4-0.2,0.9-0.1,1.1,0.3l0.7,1.2c0.2,0.4,0.1,0.9-0.3,1.1l0,0
		c-0.4,0.2-0.9,0.1-1.1-0.3L87.1,79.8z"/>
	<linearGradient id="SVGID_23_" gradientUnits="userSpaceOnUse" x1="-4.3354" y1="-2.4208" x2="85.7842" y2="69.372">
		<stop  offset="0" style="stop-color:#E01B22"/>
		<stop  offset="0.28" style="stop-color:#E01B22"/>
		<stop  offset="0.4025" style="stop-color:#E22422"/>
		<stop  offset="0.6024" style="stop-color:#E73C21"/>
		<stop  offset="0.8532" style="stop-color:#EF6421"/>
		<stop  offset="1" style="stop-color:#F47E20"/>
	</linearGradient>
	<path class="st22" d="M92,75.5c-0.4-0.2-0.5-0.7-0.3-1.1l0,0c0.2-0.4,0.7-0.5,1.1-0.3l1.2,0.7c0.4,0.2,0.5,0.7,0.3,1.1l0,0
		c-0.2,0.4-0.7,0.5-1.1,0.3L92,75.5z"/>
	<linearGradient id="SVGID_24_" gradientUnits="userSpaceOnUse" x1="-0.4092" y1="-7.3493" x2="89.7104" y2="64.4435">
		<stop  offset="0" style="stop-color:#E01B22"/>
		<stop  offset="0.28" style="stop-color:#E01B22"/>
		<stop  offset="0.4025" style="stop-color:#E22422"/>
		<stop  offset="0.6024" style="stop-color:#E73C21"/>
		<stop  offset="0.8532" style="stop-color:#EF6421"/>
		<stop  offset="1" style="stop-color:#F47E20"/>
	</linearGradient>
	<path class="st23" d="M94.1,69.3c-0.4,0-0.8-0.4-0.8-0.8l0,0c0-0.4,0.4-0.8,0.8-0.8h1.4c0.4,0,0.8,0.4,0.8,0.8l0,0
		c0,0.4-0.4,0.8-0.8,0.8H94.1z"/>
	<linearGradient id="SVGID_25_" gradientUnits="userSpaceOnUse" x1="2.1357" y1="-10.5438" x2="92.2552" y2="61.2491">
		<stop  offset="0" style="stop-color:#E01B22"/>
		<stop  offset="0.28" style="stop-color:#E01B22"/>
		<stop  offset="0.4025" style="stop-color:#E22422"/>
		<stop  offset="0.6024" style="stop-color:#E73C21"/>
		<stop  offset="0.8532" style="stop-color:#EF6421"/>
		<stop  offset="1" style="stop-color:#F47E20"/>
	</linearGradient>
	<path class="st24" d="M92.8,62.9c-0.4,0.2-0.9,0.1-1.1-0.3l0,0c-0.2-0.4-0.1-0.9,0.3-1.1l1.2-0.7c0.4-0.2,0.9-0.1,1.1,0.3l0,0
		c0.2,0.4,0.1,0.9-0.3,1.1L92.8,62.9z"/>
	<linearGradient id="SVGID_26_" gradientUnits="userSpaceOnUse" x1="-1.2688" y1="-6.2702" x2="88.8507" y2="65.5226">
		<stop  offset="0" style="stop-color:#E01B22"/>
		<stop  offset="0.28" style="stop-color:#E01B22"/>
		<stop  offset="0.4025" style="stop-color:#E22422"/>
		<stop  offset="0.6024" style="stop-color:#E73C21"/>
		<stop  offset="0.8532" style="stop-color:#EF6421"/>
		<stop  offset="1" style="stop-color:#F47E20"/>
	</linearGradient>
	<path class="st25" d="M81.7,70.6l-8.1-7.7c-0.5-0.5-0.6-1.4,0-1.9c0.5-0.5,1.4-0.6,1.9,0l5.8,5.5l6.8-10.3c0.4-0.6,1.2-0.8,1.9-0.4
		c0.6,0.4,0.8,1.2,0.4,1.9L81.7,70.6z"/>
</g>
</svg>
