<?xml version="1.0" encoding="utf-8"?>
<!-- Generator: Adobe Illustrator 25.2.3, SVG Export Plug-In . SVG Version: 6.00 Build 0)  -->
<svg version="1.1"
	 id="Layer_1" xmlns:cc="http://creativecommons.org/ns#" xmlns:dc="http://purl.org/dc/elements/1.1/" xmlns:inkscape="http://www.inkscape.org/namespaces/inkscape" xmlns:rdf="http://www.w3.org/1999/02/22-rdf-syntax-ns#" xmlns:sodipodi="http://sodipodi.sourceforge.net/DTD/sodipodi-0.dtd" xmlns:svg="http://www.w3.org/2000/svg"
	 xmlns="http://www.w3.org/2000/svg" xmlns:xlink="http://www.w3.org/1999/xlink" x="0px" y="0px" viewBox="0 0 95.6 84.9"
	 style="enable-background:new 0 0 95.6 84.9;" xml:space="preserve">
<style type="text/css">
	.st0{fill:url(#SVGID_1_);}
	.st1{fill:url(#SVGID_2_);}
	.st2{fill:url(#SVGID_3_);}
	.st3{fill:url(#SVGID_4_);}
	.st4{fill:url(#SVGID_5_);}
	.st5{fill:url(#SVGID_6_);}
	.st6{fill:url(#SVGID_7_);}
	.st7{fill:url(#SVGID_8_);}
	.st8{fill:url(#SVGID_9_);}
	.st9{fill:url(#SVGID_10_);}
</style>
<g transform="translate(0,-952.36216)">
	<linearGradient id="SVGID_1_" gradientUnits="userSpaceOnUse" x1="-1.824" y1="946.5876" x2="86.3915" y2="1034.8031">
		<stop  offset="0" style="stop-color:#DF1F26"/>
		<stop  offset="0.48" style="stop-color:#DF1F26"/>
		<stop  offset="0.6199" style="stop-color:#E53C24"/>
		<stop  offset="0.8735" style="stop-color:#F06C21"/>
		<stop  offset="1" style="stop-color:#F47E20"/>
	</linearGradient>
	<path class="st0" d="M49.6,964.7c-18.4,0-33.3,14.9-33.3,33.3s14.9,33.3,33.3,33.3l0,0c18.4,0,33.3-14.9,33.3-33.3l0,0
		C82.9,979.6,68,964.7,49.6,964.7L49.6,964.7z M49.6,974.8c12.8,0,23.1,10.3,23.1,23.1S62.4,1021,49.6,1021l0,0
		c-12.8,0-23.1-10.3-23.1-23.1l0,0C26.5,985.2,36.9,974.8,49.6,974.8L49.6,974.8z"/>
	<linearGradient id="SVGID_2_" gradientUnits="userSpaceOnUse" x1="-1.7977" y1="946.5613" x2="86.4178" y2="1034.7769">
		<stop  offset="0" style="stop-color:#DF1F26"/>
		<stop  offset="0.48" style="stop-color:#DF1F26"/>
		<stop  offset="0.6199" style="stop-color:#E53C24"/>
		<stop  offset="0.8735" style="stop-color:#F06C21"/>
		<stop  offset="1" style="stop-color:#F47E20"/>
	</linearGradient>
	<ellipse class="st1" cx="49.6" cy="998" rx="22.1" ry="22.1"/>
	<linearGradient id="SVGID_3_" gradientUnits="userSpaceOnUse" x1="-27.5671" y1="972.3307" x2="60.6484" y2="1060.5461">
		<stop  offset="0" style="stop-color:#DF1F26"/>
		<stop  offset="0.48" style="stop-color:#DF1F26"/>
		<stop  offset="0.6199" style="stop-color:#E53C24"/>
		<stop  offset="0.8735" style="stop-color:#F06C21"/>
		<stop  offset="1" style="stop-color:#F47E20"/>
	</linearGradient>
	<path class="st2" d="M8.5,981.4c2.9,0,3.5-1.3,3.2,1.6c-1.8,16.9-0.5,33,1.3,48.5c0.3,2.9-1.5,5.3-4.4,5.3s-4.9-2.4-4.4-5.3
		c2.5-15.7,3.8-31.9,1.3-48.5C4.9,980.1,5.6,981.4,8.5,981.4z"/>
	<linearGradient id="SVGID_4_" gradientUnits="userSpaceOnUse" x1="-11.0676" y1="955.8311" x2="77.1479" y2="1044.0466">
		<stop  offset="0" style="stop-color:#DF1F26"/>
		<stop  offset="0.48" style="stop-color:#DF1F26"/>
		<stop  offset="0.6199" style="stop-color:#E53C24"/>
		<stop  offset="0.8735" style="stop-color:#F06C21"/>
		<stop  offset="1" style="stop-color:#F47E20"/>
	</linearGradient>
	<path class="st3" d="M0.7,972.5c0,0-0.3-0.1-0.3,2.5s2.4,6.8,4.9,6.8h6.5c2.5,0,4.9-4.2,4.9-6.8s-0.3-2.5-0.3-2.5h-1.7
		c-0.2,0.6-0.7,1-1.3,1s-1.1-0.4-1.3-1h-2c-0.2,0.6-0.7,1-1.3,1s-1.1-0.4-1.3-1h-2c-0.2,0.6-0.7,1-1.3,1s-1.1-0.4-1.3-1
		C2.5,972.5,0.7,972.5,0.7,972.5z"/>
	<linearGradient id="SVGID_5_" gradientUnits="userSpaceOnUse" x1="-2.649" y1="947.4125" x2="85.5665" y2="1035.6281">
		<stop  offset="0" style="stop-color:#DF1F26"/>
		<stop  offset="0.48" style="stop-color:#DF1F26"/>
		<stop  offset="0.6199" style="stop-color:#E53C24"/>
		<stop  offset="0.8735" style="stop-color:#F06C21"/>
		<stop  offset="1" style="stop-color:#F47E20"/>
	</linearGradient>
	<path class="st4" d="M15.6,957.1L15.6,957.1c0.6,0,1,0.5,1,1v15.1c0,0.6-0.5,1-1,1l0,0c-0.6,0-1-0.5-1-1v-15.1
		C14.5,957.5,15,957.1,15.6,957.1z"/>
	<linearGradient id="SVGID_6_" gradientUnits="userSpaceOnUse" x1="-9.699" y1="954.4626" x2="78.5165" y2="1042.6781">
		<stop  offset="0" style="stop-color:#DF1F26"/>
		<stop  offset="0.48" style="stop-color:#DF1F26"/>
		<stop  offset="0.6199" style="stop-color:#E53C24"/>
		<stop  offset="0.8735" style="stop-color:#F06C21"/>
		<stop  offset="1" style="stop-color:#F47E20"/>
	</linearGradient>
	<path class="st5" d="M1.5,957.1L1.5,957.1c0.6,0,1,0.5,1,1v15.1c0,0.6-0.5,1-1,1l0,0c-0.6,0-1-0.5-1-1v-15.1
		C0.5,957.5,0.9,957.1,1.5,957.1z"/>
	<linearGradient id="SVGID_7_" gradientUnits="userSpaceOnUse" x1="-7.349" y1="952.1125" x2="80.8665" y2="1040.3281">
		<stop  offset="0" style="stop-color:#DF1F26"/>
		<stop  offset="0.48" style="stop-color:#DF1F26"/>
		<stop  offset="0.6199" style="stop-color:#E53C24"/>
		<stop  offset="0.8735" style="stop-color:#F06C21"/>
		<stop  offset="1" style="stop-color:#F47E20"/>
	</linearGradient>
	<path class="st6" d="M6.2,957.1L6.2,957.1c0.6,0,1,0.5,1,1v15.1c0,0.6-0.5,1-1,1l0,0c-0.6,0-1-0.5-1-1v-15.1
		C5.2,957.5,5.6,957.1,6.2,957.1z"/>
	<linearGradient id="SVGID_8_" gradientUnits="userSpaceOnUse" x1="-4.999" y1="949.7626" x2="83.2165" y2="1037.978">
		<stop  offset="0" style="stop-color:#DF1F26"/>
		<stop  offset="0.48" style="stop-color:#DF1F26"/>
		<stop  offset="0.6199" style="stop-color:#E53C24"/>
		<stop  offset="0.8735" style="stop-color:#F06C21"/>
		<stop  offset="1" style="stop-color:#F47E20"/>
	</linearGradient>
	<path class="st7" d="M10.9,957.1L10.9,957.1c0.6,0,1,0.5,1,1v15.1c0,0.6-0.5,1-1,1l0,0c-0.6,0-1-0.5-1-1v-15.1
		C9.9,957.5,10.3,957.1,10.9,957.1z"/>
	<linearGradient id="SVGID_9_" gradientUnits="userSpaceOnUse" x1="9.0009" y1="935.7627" x2="97.2164" y2="1023.9782">
		<stop  offset="0" style="stop-color:#DF1F26"/>
		<stop  offset="0.48" style="stop-color:#DF1F26"/>
		<stop  offset="0.6199" style="stop-color:#E53C24"/>
		<stop  offset="0.8735" style="stop-color:#F06C21"/>
		<stop  offset="1" style="stop-color:#F47E20"/>
	</linearGradient>
	<path class="st8" d="M87.3,998.6c-0.7,0-1.2,0.6-1.2,1.2c0,0.5,0.3,0.9,0.7,1.1c-0.1,1.5,0.1,5,0.1,12.6c0.1,5.3-0.5,10.1-1.8,18.5
		c-0.4,2.8,2.3,5.2,5.2,5.2c2.9,0,5.5-2.3,5.2-5.2c-0.9-8.4-1.4-13.2-1.3-18.5c0-7.7,0.3-11.2,0.2-12.7c0.3-0.2,0.6-0.6,0.6-1
		c0-0.7-0.6-1.2-1.2-1.2L87.3,998.6L87.3,998.6z"/>
	<linearGradient id="SVGID_10_" gradientUnits="userSpaceOnUse" x1="29.6886" y1="915.075" x2="117.9041" y2="1003.2905">
		<stop  offset="0" style="stop-color:#DF1F26"/>
		<stop  offset="0.48" style="stop-color:#DF1F26"/>
		<stop  offset="0.6199" style="stop-color:#E53C24"/>
		<stop  offset="0.8735" style="stop-color:#F06C21"/>
		<stop  offset="1" style="stop-color:#F47E20"/>
	</linearGradient>
	<path class="st9" d="M89.2,955c-3.1,5.4-2.8,20.5-2.7,23.1l0.7,18.1c0.1,2.7-0.7,3.3,2,3.3s4.8,1.2,4.8-1.5v-44.3
		C93.9,951,90.5,952.7,89.2,955L89.2,955z"/>
</g>
</svg>
