<svg id="Layer_1" data-name="Layer 1" xmlns="http://www.w3.org/2000/svg" xmlns:xlink="http://www.w3.org/1999/xlink" viewBox="0 0 136.11 200"><defs><style>.cls-1{fill:url(#linear-gradient);}</style><linearGradient id="linear-gradient" x1="1.92" y1="100" x2="132.96" y2="100" gradientUnits="userSpaceOnUse"><stop offset="0" stop-color="#e11c22"/><stop offset="1" stop-color="#f57b21"/></linearGradient></defs><path class="cls-1" d="M120.21,197.44,136.1,3a2.74,2.74,0,0,0-.74-2.11,2.86,2.86,0,0,0-2-.89H2.79a2.89,2.89,0,0,0-2,.89A2.77,2.77,0,0,0,0,3L15.9,197.44a2.76,2.76,0,0,0,.89,1.83,2.79,2.79,0,0,0,1.89.73h98.75a2.77,2.77,0,0,0,2.78-2.56Zm-6.53-54.68L78.9,152.07a3.94,3.94,0,0,1-4.8-2.78l-9.31-34.78a3.94,3.94,0,0,1,2.77-4.8l34.78-9.29a3.11,3.11,0,0,1,1-.15,3.89,3.89,0,0,1,3.78,2.91L116.43,138h0a3.9,3.9,0,0,1-.38,3,4,4,0,0,1-2.37,1.83Zm-66.92,50L21.39,167.31a3.77,3.77,0,0,1-1.16-2.75,3.86,3.86,0,0,1,1.16-2.78l25.37-25.45a4,4,0,0,1,2.78-1.15,3.91,3.91,0,0,1,2.76,1.15l25.47,25.45a4,4,0,0,1,1.13,2.78,3.88,3.88,0,0,1-1.13,2.75L52.3,192.78a4,4,0,0,1-5.54,0Zm9.47-60.38a9.48,9.48,0,0,0-13.33,0L18.19,157.07,13.7,102.22,42.79,122a9.47,9.47,0,0,0,5.31,1.65,10.64,10.64,0,0,0,1.78-.18,9.41,9.41,0,0,0,6.06-4l3.23-4.8a7.57,7.57,0,0,0,.2,1.25l7.17,26.82Zm-4.89-16h0A3.75,3.75,0,0,1,48.85,118a3.86,3.86,0,0,1-3-.6L16.05,97.18h0a3.88,3.88,0,0,1-1-5.42L35.28,62a3.92,3.92,0,0,1,3.24-1.71,3.77,3.77,0,0,1,2.22.69L70.5,81.2a3.85,3.85,0,0,1,1.64,2.51,3.91,3.91,0,0,1-.53,3Zm61.16-14.67a9.52,9.52,0,0,0-11.6-6.66l-34.6,9.24,9.91-14.53A9.5,9.5,0,0,0,73.7,76.62L43.94,56.36a9.46,9.46,0,0,0-13.15,2.51l-18.42,27L8.94,44.16a61.71,61.71,0,0,0,17.43,2,386.42,386.42,0,0,0,42.42-3.59c23.75-2.83,48.26-5.72,58.58-1.12l-7.25,88.89ZM130.28,5.56l-2.45,30.13C115.43,31.44,92.5,34.16,68.05,37S18.92,42.87,8.39,38L5.83,5.56ZM19.52,173.33,40.59,194.4H21.23Zm39,21.11,23.18-23.2a9.43,9.43,0,0,0,0-13.33l-.63-.64,34.05-9.11a9.32,9.32,0,0,0,3.73-2l-4,48.28Z"/></svg>