<svg id="Layer_1" data-name="Layer 1" xmlns="http://www.w3.org/2000/svg" xmlns:xlink="http://www.w3.org/1999/xlink" viewBox="0 0 199.21 191.49"><defs><style>.cls-1{fill:url(#linear-gradient);}.cls-2{fill:url(#linear-gradient-2);}</style><linearGradient id="linear-gradient" x1="8.51" y1="79.97" x2="190.07" y2="79.97" gradientUnits="userSpaceOnUse"><stop offset="0" stop-color="#e11c22"/><stop offset="1" stop-color="#f57b21"/></linearGradient><linearGradient id="linear-gradient-2" x1="8.51" y1="149.13" x2="190.07" y2="149.13" xlink:href="#linear-gradient"/></defs><path class="cls-1" d="M114.91,150.42v4.26H11.71V72.81A2.59,2.59,0,0,0,11,71v0A20.38,20.38,0,0,1,5.34,57.2C5.34,44.67,16.58,37.49,26,33.69h0a102.32,102.32,0,0,1,37.3-6.45c27.93,0,58,9.38,58,30h0A20.7,20.7,0,0,1,115.59,71a2.65,2.65,0,0,0-.68,1.77V115c.5.11,1,.24,1.57.41,2.08-3.55,3-4.89,7.66-3.53,4.49-3.36,7.11-2.48,10.4,1.41a16.44,16.44,0,0,1,7.2-.49l.49-.5V51.88a25.91,25.91,0,0,0,6.36-16.61C148.59,11.05,115.78,0,85.29,0h0C66.61,0,42.24,4.46,29.9,17L9.76,37.06A25.26,25.26,0,0,0,6.39,73.81v83.47a2.66,2.66,0,0,0,2.66,2.66h108.6a2.58,2.58,0,0,0,.78-.16l.36-.16h0a2.36,2.36,0,0,0,.42-.28l.25-.16,6.74-6.7Z"/><path class="cls-2" d="M169.82,182.67c30-13.93,29.62-40.55,29.33-45.2a5.36,5.36,0,0,0,.06-.7c0-2-1.38-3.9-3.87-5.64a12.11,12.11,0,0,0-4.52-4A11.21,11.21,0,0,0,187.3,122a11.07,11.07,0,0,0-7.06-2.54c-.31,0-.64,0-1,0-.23-.23-.47-.44-.71-.65a8,8,0,0,0-6.4-5.08,11,11,0,0,0-3.49-3.14c-3-3.89-7.61-2-7.61-2a11.09,11.09,0,0,0-10.36-1,11.09,11.09,0,0,0-11.44,1.79,17.09,17.09,0,0,0-3.2.17c-6.35-5.65-11.2-1-13.11-1.3a9.66,9.66,0,0,0-8.64,3.15,11.14,11.14,0,0,0-11.48,6.64,9.24,9.24,0,0,0-4.73,5.67,9.23,9.23,0,0,0-4.7,7.13c-2.72,1.81-4.23,3.8-4.23,5.89,0,0-3.63,30.6,29.27,45.9,0,0,2.49,1.15,1.57,2.7-.37.62-2.11,1.15-1.93,2.16v0c0,3.09,11.58,3.93,25.86,3.93s26.24-.84,26.24-3.93v0c.19-1-1.55-1.55-1.92-2.17C167.33,183.82,169.82,182.67,169.82,182.67Zm18.22-40c-8.64,3.45-24.89,5.77-43.53,5.77-18.31,0-34.32-2.24-43.07-5.59l-.94-.38c-.58-.24-1.12-.49-1.63-.75-.53-1.26.34-3.07,1-4.51l.73-1.53c-3.23-3.78-3-6.42,2.18-8.21.4-3.59.68-4.24,4.2-5.39,1.61-5.39,4.13-6.33,9.64-4.71,2-3.46,2.93-4.76,7.45-3.43,4.37-3.28,6.92-2.42,10.12,1.37a15.88,15.88,0,0,1,7-.48c3.43-3.69,5.58-3.56,9.47-1.3,3.79-2.19,6-2.38,9.24,1,0,0,4.88-1.51,7.64,1.79,1,1.18,1.35,3.48,2,3.67,0,0,4.47-1.93,6.83,4l.94,1.09c5.51-1.27,7.89.35,8.92,5.62,3.93,1.63,6.73,5.06,4,9.24a13.88,13.88,0,0,0-.28,1.83c-.45.22-.93.44-1.44.65"/></svg>