<svg id="Layer_1" data-name="Layer 1" xmlns="http://www.w3.org/2000/svg" xmlns:xlink="http://www.w3.org/1999/xlink" viewBox="0 0 198.82 196.19"><defs><style>.cls-1{fill:url(#linear-gradient);}.cls-2{fill:url(#linear-gradient-2);}.cls-3{fill:url(#linear-gradient-3);}.cls-4{fill:url(#linear-gradient-4);}</style><linearGradient id="linear-gradient" x1="6.22" y1="137.68" x2="190.05" y2="137.68" gradientUnits="userSpaceOnUse"><stop offset="0" stop-color="#e11c22"/><stop offset="1" stop-color="#f57b21"/></linearGradient><linearGradient id="linear-gradient-2" x1="6.22" y1="54" x2="190.05" y2="54" xlink:href="#linear-gradient"/><linearGradient id="linear-gradient-3" x1="6.22" y1="59.08" x2="190.05" y2="59.08" xlink:href="#linear-gradient"/><linearGradient id="linear-gradient-4" x1="6.22" y1="52.47" x2="190.05" y2="52.47" xlink:href="#linear-gradient"/></defs><path class="cls-1" d="M134.57,82.44c33.5,3,57.2,10.49,57.2,19.23,0,11.42-40.51,20.69-90.48,20.69S10.8,113.09,10.8,101.67c0-8.14,22-15.3,51.82-18.67a15.14,15.14,0,0,0-.75-4.52c-.9-2.6-2.64-2.35-2.64-2.35C25.1,80.5,1.4,90.09,1.4,101.22c0,0-6.56,55.24,52.82,82.85,0,0,4.49,2.08,2.84,4.88-.67,1.12-3.8,2.08-3.48,3.9,0,0,0,0,0,0,0,5.59,20.91,7.11,46.69,7.11s47.34-1.52,47.34-7.1v0c.33-1.82-2.81-2.79-3.48-3.91-1.66-2.8,2.84-4.88,2.84-4.88,54.07-25.14,53.47-73.18,52.93-81.57a7.71,7.71,0,0,0,.11-1.28c0-11.84-26.82-21.94-64.49-25.86a3.52,3.52,0,0,0-1.67,2.88,8.83,8.83,0,0,0,.73,4.2Z" transform="translate(-1.18 -3.81)"/><path class="cls-2" d="M118.91,27.93c.69-8.94-5.11-17-12-22.87-4.54-3.91-11.45,2.29-6.89,6.21,7.65,6.58,11.52,14.65,7.18,23.86-3.82,8.12-11.7,13.63-15.3,21.93-6.6,15.23,0,33.36,10.72,45.61,3.88,4.45,10.72-1.81,6.89-6.22-11.34-13-14.81-32.45-2.16-45.59,6.28-6.53,10.87-14.21,11.54-22.93Z" transform="translate(-1.18 -3.81)"/><path class="cls-3" d="M143.07,37.86c.56-7.27-4.16-13.82-9.75-18.62-3.7-3.18-9.31,1.87-5.6,5.06,6.22,5.35,9.37,11.92,5.84,19.42-3.11,6.61-9.52,11.09-12.45,17.85-5.37,12.39,0,27.15,8.72,37.12,3.16,3.62,8.73-1.48,5.61-5.06-9.23-10.59-12-26.42-1.76-37.12,5.12-5.3,8.85-11.55,9.39-18.65Z" transform="translate(-1.18 -3.81)"/><path class="cls-4" d="M87.76,31.25C88.31,24,83.59,17.43,78,12.63c-3.7-3.19-9.32,1.87-5.61,5,6.22,5.36,9.37,11.93,5.84,19.43C75.13,43.71,68.72,48.2,65.79,55c-5.37,12.39,0,27.15,8.72,37.12,3.16,3.62,8.73-1.48,5.61-5.06C70.89,76.43,68.07,60.6,78.36,49.91c5.12-5.31,8.85-11.56,9.4-18.66Z" transform="translate(-1.18 -3.81)"/></svg>