<svg id="Layer_1" data-name="Layer 1" xmlns="http://www.w3.org/2000/svg" xmlns:xlink="http://www.w3.org/1999/xlink" viewBox="0 0 200 196.07"><defs><style>.cls-1{fill:url(#linear-gradient);}.cls-2{fill:url(#linear-gradient-2);}.cls-3{fill:url(#linear-gradient-3);}.cls-4{fill:url(#linear-gradient-4);}.cls-5{fill:url(#linear-gradient-5);}.cls-6{fill:url(#linear-gradient-6);}.cls-7{fill:url(#linear-gradient-7);}.cls-8{fill:url(#linear-gradient-8);}.cls-9{fill:url(#linear-gradient-10);}</style><linearGradient id="linear-gradient" x1="0.58" y1="128.75" x2="199.42" y2="128.75" gradientUnits="userSpaceOnUse"><stop offset="0" stop-color="#e11c22"/><stop offset="1" stop-color="#f57b21"/></linearGradient><linearGradient id="linear-gradient-2" x1="0.58" y1="41.72" x2="199.42" y2="41.72" xlink:href="#linear-gradient"/><linearGradient id="linear-gradient-3" x1="0.58" y1="11.22" x2="199.42" y2="11.22" xlink:href="#linear-gradient"/><linearGradient id="linear-gradient-4" x1="0.58" y1="20.15" x2="199.42" y2="20.15" xlink:href="#linear-gradient"/><linearGradient id="linear-gradient-5" x1="0.58" y1="41.72" x2="199.42" y2="41.72" xlink:href="#linear-gradient"/><linearGradient id="linear-gradient-6" x1="0.58" y1="63.28" x2="199.42" y2="63.28" xlink:href="#linear-gradient"/><linearGradient id="linear-gradient-7" x1="0.58" y1="72.21" x2="199.42" y2="72.21" xlink:href="#linear-gradient"/><linearGradient id="linear-gradient-8" x1="0.58" y1="63.28" x2="199.42" y2="63.28" xlink:href="#linear-gradient"/><linearGradient id="linear-gradient-10" x1="0.58" y1="20.15" x2="199.42" y2="20.15" xlink:href="#linear-gradient"/></defs><path class="cls-1" d="M2.5,200h195a2.5,2.5,0,0,0,0-5H135.86V155.89a12.62,12.62,0,0,0,9-7.15A15.29,15.29,0,0,0,160,133.46a15.9,15.9,0,0,0-.16-2.19,12.6,12.6,0,0,0,3.48-24A15.29,15.29,0,0,0,148,92.13a15.9,15.9,0,0,0-2.19.16,12.6,12.6,0,0,0-24-3.48,15.29,15.29,0,0,0-15.16,15.28,15.9,15.9,0,0,0,.16,2.19,12.6,12.6,0,0,0-3.48,24,15.29,15.29,0,0,0,15.28,15.16,15.9,15.9,0,0,0,2.19-.16,12.62,12.62,0,0,0,10,10.64V195H64.12V158.77a19,19,0,0,0,25.34-27.83,18.91,18.91,0,0,0,0-24.56A19,19,0,0,0,80.62,76a19,19,0,0,0-38,0,19,19,0,0,0-8.84,30.43,18.91,18.91,0,0,0,0,24.56,19,19,0,0,0,25.34,27.84V195H2.5a2.5,2.5,0,0,0,0,5Z" transform="translate(0 -3.97)"/><path class="cls-2" d="M175.4,41.72A17.08,17.08,0,1,0,158.32,58.8,17.1,17.1,0,0,0,175.4,41.72ZM158.32,53.8A12.08,12.08,0,1,1,170.4,41.72,12.09,12.09,0,0,1,158.32,53.8Z" transform="translate(0 -3.97)"/><path class="cls-3" d="M160.81,16V6.47a2.5,2.5,0,1,0-5,0V16a2.5,2.5,0,0,0,5,0Z" transform="translate(0 -3.97)"/><path class="cls-4" d="M140.11,26a2.49,2.49,0,0,0,1.77-.73,2.52,2.52,0,0,0,0-3.54L135.16,15a2.5,2.5,0,1,0-3.54,3.54l6.72,6.72a2.49,2.49,0,0,0,1.77.73Z" transform="translate(0 -3.97)"/><path class="cls-5" d="M120.57,41.72a2.49,2.49,0,0,0,2.5,2.5h9.5a2.5,2.5,0,0,0,0-5h-9.5A2.49,2.49,0,0,0,120.57,41.72Z" transform="translate(0 -3.97)"/><path class="cls-6" d="M133.39,69.14a2.49,2.49,0,0,0,1.77-.73l6.72-6.72a2.5,2.5,0,1,0-3.54-3.54l-6.72,6.72a2.52,2.52,0,0,0,0,3.54,2.49,2.49,0,0,0,1.77.73Z" transform="translate(0 -3.97)"/><path class="cls-7" d="M155.81,67.46V77a2.5,2.5,0,0,0,5,0V67.46a2.5,2.5,0,1,0-5,0Z" transform="translate(0 -3.97)"/><path class="cls-8" d="M181.48,68.41a2.51,2.51,0,0,0,3.54,0,2.52,2.52,0,0,0,0-3.54l-6.72-6.71a2.5,2.5,0,0,0-3.54,3.53Z" transform="translate(0 -3.97)"/><path class="cls-5" d="M196.07,41.72a2.5,2.5,0,0,0-2.5-2.5h-9.51a2.5,2.5,0,0,0,0,5h9.51A2.5,2.5,0,0,0,196.07,41.72Z" transform="translate(0 -3.97)"/><path class="cls-9" d="M178.29,25.28,185,18.56A2.5,2.5,0,1,0,181.48,15l-6.72,6.72A2.5,2.5,0,0,0,176.52,26a2.53,2.53,0,0,0,1.77-.73Z" transform="translate(0 -3.97)"/></svg>