<svg id="Layer_1" data-name="Layer 1" xmlns="http://www.w3.org/2000/svg" xmlns:xlink="http://www.w3.org/1999/xlink" viewBox="0 0 199.7 199.7"><defs><style>.cls-1{fill:url(#linear-gradient);}.cls-2{fill:url(#linear-gradient-2);}.cls-3{fill:url(#linear-gradient-3);}</style><linearGradient id="linear-gradient" x1="6.33" y1="100.15" x2="191.62" y2="100.15" gradientUnits="userSpaceOnUse"><stop offset="0" stop-color="#e11c22"/><stop offset="1" stop-color="#f57b21"/></linearGradient><linearGradient id="linear-gradient-2" x1="6.33" y1="95.02" x2="191.62" y2="95.02" xlink:href="#linear-gradient"/><linearGradient id="linear-gradient-3" x1="6.33" y1="105.28" x2="191.62" y2="105.28" xlink:href="#linear-gradient"/></defs><path class="cls-1" d="M100.15.3A99.85,99.85,0,1,0,200,100.15,100,100,0,0,0,100.15.3ZM7,100.15A92.83,92.83,0,0,1,31.69,37L163.3,168.61A93.13,93.13,0,0,1,7,100.15ZM168.61,163.3,37,31.69A93.13,93.13,0,0,1,168.61,163.3Z" transform="translate(-0.3 -0.3)"/><path class="cls-2" d="M172.77,93.08a10.33,10.33,0,0,0-7.26-17.42,34,34,0,0,0-33.19-26.85H68a33,33,0,0,0-3.6.21l6.45,6.44h61.49a27.29,27.29,0,0,1,26.32,20.17H91l6.65,6.65h67.54A3.76,3.76,0,0,1,168.94,86h0a3.7,3.7,0,0,1-1.11,2.63,3.65,3.65,0,0,1-2.63,1.11,28.42,28.42,0,0,1-8.46-1.11,35.56,35.56,0,0,0-10.14-1.31,20.64,20.64,0,0,0-10.84,2.79,15.69,15.69,0,0,1-15.51,0,20.62,20.62,0,0,0-10.83-2.8,21.67,21.67,0,0,0-6,.76L109.37,94h0a14.08,14.08,0,0,1,7.75,2,22.36,22.36,0,0,0,21.67,0,14.18,14.18,0,0,1,7.76-2,28.59,28.59,0,0,1,8.46,1.1,35,35,0,0,0,10.13,1.32,3.73,3.73,0,0,1,0,7.45h0a34.82,34.82,0,0,0-10.09,1.32,28.29,28.29,0,0,1-8.44,1.1,14.17,14.17,0,0,1-7.75-2,20.63,20.63,0,0,0-10.84-2.8,19.83,19.83,0,0,0-9.21,2L140,124.65h18.63a27.13,27.13,0,0,1-6.76,11.88l4.71,4.7a33.68,33.68,0,0,0,8.91-16.61,10.33,10.33,0,0,0,7.26-17.42,10.25,10.25,0,0,0,0-14.12Z" transform="translate(-0.3 -0.3)"/><path class="cls-3" d="M129.47,144.84H68a27.29,27.29,0,0,1-26.35-20.19H63.38v2.16a8.35,8.35,0,0,0,2.59,6,8.22,8.22,0,0,0,5.7,2.28h.46A8.46,8.46,0,0,0,80,126.53v-1.88h29.29L86.5,101.86a22,22,0,0,0-6.61,2.48,12.12,12.12,0,0,0-6.56,10.8v11.39a1.86,1.86,0,0,1-1.55,1.93,1.66,1.66,0,0,1-1.23-.45,1.64,1.64,0,0,1-.51-1.2V114.54a12.27,12.27,0,0,0-6.87-11,20.11,20.11,0,0,0-9.49-2.11,35.12,35.12,0,0,0-10.14,1.32,28.75,28.75,0,0,1-8.43,1.1h0a3.74,3.74,0,0,1-3.72-3.74,3.79,3.79,0,0,1,1.09-2.64,3.71,3.71,0,0,1,2.63-1.08,28,28,0,0,1,8.45,1.1h0a35.34,35.34,0,0,0,10.13,1.32,20.62,20.62,0,0,0,10.83-2.8,14.08,14.08,0,0,1,7.75-2,14.17,14.17,0,0,1,7.75,2c.45.23.91.47,1.39.7L72,87.35a20.61,20.61,0,0,0-10.57,2.79,14.17,14.17,0,0,1-7.75,2,28.32,28.32,0,0,1-8.45-1.1,35,35,0,0,0-10.13-1.32,3.74,3.74,0,0,1,0-7.48H66.91l-6.64-6.65H41.64A27.16,27.16,0,0,1,48.4,63.77l-4.7-4.7a33.65,33.65,0,0,0-8.93,16.59,10.33,10.33,0,0,0-7,3,10.48,10.48,0,0,0-3,7.35,10.28,10.28,0,0,0,2.8,7,10.29,10.29,0,0,0,0,14.12,10.34,10.34,0,0,0,7.24,17.42A34,34,0,0,0,68,151.5h64.34a33,33,0,0,0,3.6-.22Z" transform="translate(-0.3 -0.3)"/></svg>